<?xml version="1.0" encoding="UTF-8"?>
<svg id="Layer_1" data-name="Layer 1" xmlns="http://www.w3.org/2000/svg" viewBox="0 0 201.74 198.36">
  <path fill="#FBEFF4" d="m106.06,0c.09.03.17.09.26.09,1.65.14,3.3.25,4.94.41,1.09.1,2.18.27,3.28.4.26.03.52.07.78.09.24.02.48,0,.72.04,1.36.26,2.72.53,4.08.79.33.06.66.09.99.16.4.08.79.18,1.19.26.33.07.65.14.98.2.16.03.34.03.5.07.92.25,1.83.52,2.76.77.85.22,1.72.4,2.57.63.64.17,1.28.38,1.91.58.86.28,1.73.55,2.58.85,1.08.39,2.14.81,3.21,1.22.47.18.94.35,1.39.55,1.86.8,3.72,1.59,5.56,2.43,1.45.66,2.9,1.34,4.3,2.11,1.84,1.01,3.64,2.09,5.45,3.16,2.66,1.56,5.17,3.36,7.65,5.21,3.48,2.6,6.77,5.42,9.88,8.45,2.82,2.75,5.5,5.62,7.97,8.68,1.73,2.14,3.34,4.38,4.93,6.62,1.15,1.62,2.24,3.28,3.26,4.98,1.08,1.8,2.08,3.65,3.07,5.51.78,1.45,1.52,2.93,2.21,4.42.6,1.27,1.12,2.58,1.66,3.88.58,1.41,1.15,2.83,1.7,4.25.24.62.42,1.27.63,1.9.25.75.51,1.49.75,2.24.19.59.38,1.18.55,1.78.23.8.43,1.62.64,2.42.25.95.5,1.89.74,2.84.05.19.1.37.14.56.13.58.27,1.16.38,1.75.23,1.25.43,2.5.65,3.74,0,.05,0,.1.01.14.37,1.25.42,2.55.59,3.83.09.69.23,1.37.3,2.06.17,1.69.33,3.39.44,5.08.08,1.15.08,2.3.09,3.45,0,2.4.02,4.8-.01,7.2-.02,1.7-.09,3.4-.38,5.09-.13.8-.11,1.63-.17,2.44-.04.45-.12.9-.19,1.35-.03.17-.09.32-.11.49-.2,1.44-.36,2.9-.61,4.33-.22,1.27-.53,2.52-.8,3.79-.21.98-.4,1.97-.63,2.94-.19.84-.42,1.67-.64,2.5-.26.94-.53,1.88-.82,2.82-.24.77-.51,1.54-.77,2.31-.22.66-.43,1.32-.65,1.97-.22.63-.44,1.26-.69,1.88-.38.98-.78,1.95-1.18,2.92-.38.93-.75,1.86-1.17,2.77-.55,1.19-1.12,2.37-1.7,3.55-.53,1.07-1.05,2.15-1.63,3.19-.69,1.26-1.41,2.49-2.14,3.73-.7,1.17-1.4,2.34-2.14,3.48-1.89,2.91-3.94,5.71-6.12,8.42-3.83,4.76-8.08,9.11-12.68,13.11-2.48,2.15-5.07,4.16-7.76,6.05-2.43,1.7-4.89,3.35-7.48,4.79-2.08,1.16-4.19,2.28-6.31,3.37-1.53.78-3.08,1.52-4.65,2.2-1.38.6-2.8,1.09-4.2,1.62-1.07.41-2.11.93-3.21,1.2-2.11.51-4.32.39-5.9-1.39-.73-.81-1.25-1.77-1.26-2.9-.02-2.69-.01-5.37-.01-8.06,0-7.6,0-15.21.03-22.81,0-1.43-.32-2.81-.5-4.21-.15-1.16-.46-2.29-.83-3.4-.18-.54-.36-1.09-.55-1.62-.87-2.39-2.17-4.52-3.92-6.37-.11-.12-.27-.2-.37-.33-.12-.16-.33-.39-.28-.51.07-.18.31-.36.51-.42.43-.13.89-.26,1.34-.27,1.3-.02,2.56-.32,3.84-.52,1.51-.23,3.01-.5,4.5-.88.95-.25,1.92-.4,2.86-.65.83-.21,1.64-.49,2.46-.75.64-.2,1.28-.38,1.9-.62,1.14-.42,2.28-.84,3.39-1.32,1.09-.47,2.19-.95,3.23-1.52,1.46-.8,2.92-1.63,4.31-2.55,1.99-1.33,3.83-2.87,5.5-4.61,1.59-1.67,3.03-3.46,4.29-5.39,1-1.52,1.86-3.12,2.66-4.74.45-.92.78-1.89,1.16-2.85.25-.62.51-1.24.72-1.87.25-.75.46-1.5.67-2.26.26-.97.51-1.94.76-2.91.01-.05.04-.09.05-.13.21-1.2.42-2.4.62-3.6.04-.26.03-.53.1-.78.47-1.75.36-3.57.6-5.35.36-2.72.28-5.46.25-8.19,0-.76-.13-1.53-.21-2.29-.06-.55-.12-1.1-.2-1.64-.12-.78-.24-1.56-.39-2.33-.2-1.03-.4-2.06-.65-3.08-.16-.67-.38-1.33-.6-1.99-.22-.63-.49-1.24-.73-1.86-1.24-3.32-2.99-6.35-5.16-9.14-.62-.79-1.28-1.55-1.93-2.32-.29-.34-.46-.67-.27-1.17.68-1.77,1.06-3.62,1.39-5.47.21-1.17.2-2.39.33-3.58.18-1.78.06-3.54-.12-5.31-.04-.43-.05-.86-.08-1.29-.01-.24,0-.48-.05-.72-.25-1.22-.5-2.43-.77-3.64-.2-.88-.39-1.77-.64-2.64-.21-.73-.48-1.45-.73-2.17-.06-.18-.18-.35-.19-.54-.06-.6-.45-.77-.97-.88-1.13-.22-2.24-.1-3.36.06-.4.06-.81.08-1.21.15-.49.08-.99.18-1.47.3-.9.22-1.81.44-2.7.69-.64.18-1.28.4-1.9.64-1.09.42-2.17.86-3.24,1.32-.77.33-1.52.68-2.27,1.06-1.08.55-2.16,1.12-3.21,1.73-1.49.86-2.97,1.74-4.44,2.63-.84.51-1.63,1.09-2.45,1.62-.35.22-.7.33-1.15.2-1.29-.36-2.58-.68-3.89-.96-1.17-.25-2.37-.36-3.52-.64-1.24-.31-2.5-.4-3.75-.59-.68-.11-1.37-.2-2.06-.29-.71-.09-1.43-.18-2.14-.24-1.43-.11-2.87-.24-4.3-.29-2.42-.07-4.84-.12-7.26-.1-1.87.01-3.75.03-5.6.25-1.92.23-3.87.26-5.77.7-.44.1-.9.11-1.36.15-.12.01-.24,0-.36.02-1.22.24-2.44.48-3.66.73-.14.03-.27.09-.42.11-1.39.24-2.76.53-4.11.95-.45.14-.94.22-1.41.25-.26.01-.56-.1-.8-.25-2.17-1.35-4.31-2.76-6.5-4.06-1.33-.79-2.75-1.44-4.13-2.13-.85-.43-1.7-.86-2.58-1.22-1.03-.43-2.1-.78-3.15-1.16-.74-.26-1.48-.53-2.24-.75-.73-.21-1.47-.44-2.22-.54-1.4-.19-2.81-.31-4.22-.43-.35-.03-.71.08-1.07.09-.67.01-.99.42-1.16.98-.48,1.53-.98,3.04-1.4,4.58-.27,1.01-.41,2.06-.6,3.09-.08.45-.16.9-.21,1.35-.1.76-.24,1.52-.26,2.28-.04,1.8-.06,3.6,0,5.39.03.95.21,1.9.32,2.85.03.26.09.52.12.78.15,1.26.45,2.49.87,3.68.16.47.32.94.49,1.41.11.32-.03.55-.22.78-.59.72-1.22,1.42-1.76,2.18-.93,1.3-1.87,2.61-2.69,3.98-.82,1.37-1.55,2.8-2.22,4.24-.47,1.01-.8,2.09-1.18,3.14-.26.74-.53,1.49-.73,2.25-.26.99-.45,2-.66,3.01-.06.3-.05.63-.15.92-.33,1.02-.31,2.08-.39,3.13-.09,1.19-.21,2.39-.22,3.59-.01,1.44.07,2.87.12,4.31.02.48.08.96.09,1.43.05,1.7.16,3.4.45,5.08.24,1.37.37,2.75.63,4.11.2,1.08.5,2.14.77,3.2.2.79.39,1.57.62,2.35.23.78.51,1.54.79,2.3.18.49.38.98.56,1.47.76,2.02,1.75,3.92,2.84,5.77,1.54,2.62,3.4,4.98,5.55,7.11,1.98,1.96,4.17,3.66,6.54,5.13,1.59.98,3.23,1.84,4.92,2.63.95.44,1.94.78,2.92,1.16.67.26,1.32.55,2,.77.72.24,1.46.42,2.2.63.64.18,1.29.36,1.93.53.97.25,1.94.51,2.91.74.42.1.85.12,1.27.2,1.39.26,2.77.55,4.15.78.61.1,1.24.1,1.86.17.64.08,1.28.17,1.91.31.2.04.44.23.52.41.05.1-.14.37-.29.5-1.17,1.09-2.09,2.36-2.84,3.76-.44.82-.84,1.66-1.23,2.5-.21.45-.38.93-.52,1.41-.23.83-.44,1.66-.63,2.5-.18.82-.3,1.65-.51,2.46-.06.25-.27.55-.49.65-.94.4-1.9.76-2.87,1.09-.79.27-1.59.5-2.39.75-.07.02-.14.05-.21.06-1.23.19-2.45.44-3.68.56-.95.1-1.92.08-2.88.06-1.24-.02-2.47-.14-3.7-.43-1.25-.28-2.44-.68-3.6-1.18-1.47-.64-2.81-1.51-4.08-2.52-2.03-1.61-3.68-3.56-5.08-5.73-1.16-1.81-2.28-3.65-3.77-5.24-1.67-1.78-3.53-3.31-5.69-4.44-1.46-.76-2.99-1.38-4.64-1.62-.38-.05-.76-.12-1.13-.21-.76-.18-1.52-.17-2.28,0-.44.1-.91.12-1.34.26-.45.15-.9.34-1.28.61-.45.32-.47,1.14-.07,1.71.28.41.59.84.97,1.15.95.76,1.9,1.53,2.93,2.18,1.9,1.21,3.53,2.72,4.98,4.42,1.55,1.83,2.86,3.83,3.93,5.98.63,1.26,1.27,2.52,1.77,3.84.53,1.4,1.18,2.72,2.01,3.95,1.54,2.27,3.46,4.16,5.79,5.61,1.01.63,2.06,1.19,3.13,1.73.57.29,1.2.46,1.81.67.74.25,1.49.49,2.24.72.2.06.41.12.62.16.63.13,1.26.26,1.9.39.21.04.42.1.64.11,1.87.1,3.73.27,5.6.27,1.65,0,3.31-.11,4.95-.3,1.4-.16,2.77-.51,4.16-.77.14-.03.28-.05.43-.06.65-.04.82.1.82.76.01,1.49,0,2.97.01,4.46.02,4.22.05,8.44.07,12.66,0,.53,0,1.06-.02,1.58-.09,1.69-.84,3.03-2.25,3.96-.68.45-1.43.77-2.28.78-.53,0-1.06,0-1.58,0-.91,0-1.7-.46-2.54-.72-.63-.2-1.25-.47-1.87-.71-.71-.28-1.42-.56-2.12-.84-.49-.19-.98-.38-1.46-.59-.98-.42-1.97-.85-2.94-1.3-1.17-.54-2.34-1.09-3.49-1.66-.98-.49-1.96-.99-2.91-1.54-1.49-.85-2.99-1.7-4.44-2.62-1.91-1.22-3.81-2.47-5.67-3.78-6.31-4.46-11.97-9.65-17.09-15.42-2.94-3.32-5.66-6.82-8.11-10.51-1.36-2.05-2.66-4.14-3.88-6.28-1.21-2.11-2.3-4.29-3.4-6.47-.78-1.56-1.52-3.14-2.2-4.74-.6-1.43-1.1-2.9-1.65-4.35-.41-1.09-.83-2.19-1.21-3.29-.25-.74-.43-1.51-.66-2.27-.24-.8-.5-1.59-.72-2.4-.25-.92-.47-1.85-.71-2.77-.07-.28-.14-.56-.2-.84-.09-.37-.16-.75-.25-1.12-.08-.35-.16-.7-.25-1.05-.03-.12-.09-.22-.11-.34-.21-1.13-.41-2.26-.62-3.39-.08-.45-.15-.9-.23-1.34-.02-.12-.07-.23-.08-.35-.2-1.59-.44-3.18-.6-4.77-.21-2.14-.37-4.3-.55-6.44-.06-.74-.1-1.47-.15-2.21,0-1.92,0-3.84,0-5.76.03-.11.08-.23.09-.34.18-2.2.35-4.39.53-6.59.07-.91.09-1.83.27-2.72.29-1.41.21-2.87.68-4.25.05-.15.02-.33.04-.5.04-.36.09-.71.15-1.07.13-.68.26-1.36.4-2.04.04-.21.11-.42.15-.63.1-.44.19-.89.29-1.33.06-.26.11-.51.17-.77.1-.42.2-.83.3-1.25.06-.23.11-.47.18-.7.24-.85.49-1.7.73-2.55.16-.55.32-1.1.48-1.65.24-.8.45-1.61.72-2.4.37-1.11.78-2.2,1.17-3.3.37-1.03.73-2.07,1.15-3.09.55-1.32,1.13-2.63,1.73-3.93.68-1.47,1.34-2.96,2.09-4.39,1-1.9,2.09-3.75,3.15-5.63,1.64-2.9,3.55-5.62,5.5-8.31,1.83-2.52,3.82-4.92,5.89-7.25,2.27-2.57,4.69-5,7.21-7.32,2.88-2.64,5.87-5.15,9.08-7.38,1.85-1.28,3.7-2.56,5.58-3.78,1.46-.95,2.97-1.82,4.48-2.7.91-.53,1.84-1.02,2.77-1.49,1.11-.56,2.23-1.08,3.35-1.61,1.23-.58,2.45-1.17,3.7-1.71,1.16-.5,2.34-.95,3.52-1.41.51-.2,1.03-.38,1.55-.56.79-.28,1.57-.55,2.36-.81.66-.22,1.31-.44,1.97-.63.75-.22,1.52-.41,2.27-.62,1.52-.42,3.03-.84,4.55-1.25.16-.04.33-.04.5-.07.31-.06.61-.12.91-.18.44-.09.88-.2,1.33-.29.3-.06.61-.1.92-.16,1.36-.26,2.72-.53,4.08-.78.23-.04.48-.02.72-.04.29-.03.57-.07.86-.1,1-.13,1.99-.28,2.99-.37,1.72-.16,3.44-.29,5.15-.43.09,0,.18-.06.26-.09,3.36,0,6.72,0,10.07,0Z"/>
</svg>