<?xml version="1.0" encoding="UTF-8"?>
<svg id="Layer_1" data-name="Layer 1" xmlns="http://www.w3.org/2000/svg" viewBox="0 0 194.96 194.98">
  <path fill="#FBEFF4" d="m175.09,194.98H19.92c-.13-.04-.26-.09-.4-.11-.76-.12-1.53-.19-2.27-.37-7.17-1.69-12.32-5.88-15.37-12.6-1.26-2.78-1.86-5.73-1.86-8.78,0-50.05,0-100.1,0-150.15,0-1.19-.09-2.39.17-3.57.17-.75.22-1.52.39-2.26C1.93,11.16,5.21,6.52,10.39,3.26,13.8,1.12,17.54.02,21.57.01,72.11,0,122.66,0,173.21,0c1.3,0,2.58.12,3.86.34,8.58,1.47,15.56,8.11,17.43,16.62.2.93.31,1.88.46,2.83v155.33c-.14.94-.24,1.9-.44,2.83-1.83,8.45-8.61,15.04-17.1,16.65-.77.15-1.55.26-2.33.39Zm-7.19-27.16v-1c0-19.22,0-38.43,0-57.65,0-2.64-.1-5.27-.43-7.9-.49-4.02-1.43-7.92-3.05-11.64-3.02-6.92-7.86-12.09-14.76-15.26-4.1-1.88-8.44-2.8-12.93-3.09-3.05-.19-6.09-.12-9.1.43-9.28,1.71-16.5,6.55-21.77,14.36-.1.14-.21.27-.32.41-.05-.02-.09-.03-.14-.05v-12.34h-27.73v93.64c.55.14,26.97.16,27.75,0v-.9c0-15.69,0-31.38.01-47.07,0-1.84.12-3.69.27-5.53.2-2.4.79-4.73,1.73-6.95,1.93-4.52,5.16-7.62,9.92-9,2.71-.79,5.47-.96,8.27-.63,4.67.56,8.24,2.82,10.54,6.97,1.57,2.84,2.32,5.93,2.61,9.13.2,2.22.27,4.45.27,6.68.02,15.47.01,30.95.01,46.42,0,.3,0,.61,0,.94h28.83ZM30.09,74.11c-.15.8-.12,93.14.02,93.68.93.14,28.3.1,28.82-.05v-93.63h-28.84Zm-2.88-29.71c-.08,9.47,7.64,17.31,17.11,17.3,9.5,0,17.17-7.68,17.19-17.23.02-9.56-7.62-17.32-17.08-17.34-9.72-.03-17.28,7.96-17.21,17.27Z"/>
</svg>