<?xml version="1.0" encoding="UTF-8"?>
<svg id="Layer_1" data-name="Layer 1" xmlns="http://www.w3.org/2000/svg" viewBox="0 0 1595.42 1595.15">
  <path fill="#fcb103" d="m796.79,1594.94c-2.97-16.35-5.87-32.72-8.93-49.05-18.5-99.07-38.21-197.87-69-294.05-17.23-53.83-38.42-105.95-67.39-154.71-45.37-76.37-108.94-132.79-187.89-172.58-55.04-27.74-113.03-47.53-172.23-63.98-70.54-19.6-142.14-34.58-214.04-48.16-25.17-4.75-50.37-9.29-75.56-13.93-.57-.11-1.14-.26-1.77-1.31,8.23-1.5,16.46-3.01,24.7-4.51,96.69-17.61,193.15-36.29,287.61-63.95,56.44-16.53,111.43-36.73,163.56-64.34,92.14-48.8,158.21-121.8,202.12-215.78,26.64-57.02,45.88-116.57,61.91-177.25,19.41-73.52,34.38-148,48.08-222.75,2.97-16.18,5.94-32.36,9.75-48.59,1.65,9.07,3.28,18.14,4.94,27.21,18.28,99.78,37.54,199.35,66.93,296.62,17.16,56.8,38.2,112.02,67.4,163.9,45.76,81.29,111.26,141.48,194.35,183.19,55.85,28.04,114.64,47.99,174.67,64.58,67.52,18.66,136,33.11,204.79,46.15,27.45,5.2,54.95,10.1,82.43,15.15.44.08.82.43,2.2,1.17-12.36,2.25-23.81,4.31-35.25,6.42-102.23,18.83-204.22,38.74-303.56,70.04-55.98,17.63-110.17,39.41-160.77,69.59-78.65,46.92-135.66,113.14-175.48,194.99-27.62,56.77-47.23,116.38-63.59,177.16-19.51,72.46-34.47,145.93-48.15,219.68-3.46,18.64-6.75,37.31-10.13,55.96-.2,1.12-.59,2.21-.9,3.31-.26-.07-.52-.14-.79-.21Z"/>
</svg>