<?xml version="1.0" encoding="UTF-8"?>
<svg id="Layer_1" data-name="Layer 1" xmlns="http://www.w3.org/2000/svg" viewBox="0 0 169.66 173.61">
  <path fill="#FBEFF4" d="m169.66,173.57c-.29,0-.58.02-.86.02-16.07,0-32.15,0-48.22.01-.62,0-.98-.17-1.34-.69-15.27-22.21-30.56-44.4-45.84-66.6-.13-.2-.28-.39-.45-.63-.15.14-.3.26-.41.39-6.68,7.76-13.36,15.53-20.03,23.29-5.93,6.89-11.85,13.79-17.78,20.68-6.58,7.66-13.17,15.31-19.74,22.97-.36.42-.73.59-1.28.59-4.27-.02-8.54-.01-12.81-.01h-.89c22.22-25.86,44.33-51.58,66.47-77.34C44.4,64.21,22.35,32.18.22.04c.4,0,.67-.02.95-.02,15.47,0,30.95,0,46.42,0,.65,0,1.3.04,1.94-.01.52-.04.82.16,1.11.58,2.87,4.2,5.76,8.38,8.64,12.57,11.46,16.65,22.93,33.3,34.39,49.94.17.25.35.5.57.81.22-.23.4-.41.56-.6,6.85-7.97,13.69-15.94,20.54-23.9,9.96-11.58,19.93-23.16,29.9-34.74,1.2-1.4,2.42-2.79,3.62-4.2.27-.32.55-.46.98-.46,4.39.01,8.78,0,13.17,0,.18,0,.36.02.69.04-21.05,24.48-42.01,48.85-62.98,73.24.16.25.3.47.45.68,9.71,14.1,19.42,28.2,29.13,42.3,12.84,18.64,25.67,37.29,38.51,55.93.28.41.58.81.87,1.22v.14Zm-21.51-11.29c-.2-.32-.31-.51-.43-.68-6.17-8.97-12.34-17.93-18.52-26.9-14.32-20.79-28.64-41.59-42.96-62.38-13.87-20.14-27.74-40.29-41.6-60.44-.29-.42-.59-.6-1.11-.6-6.98.02-13.96.01-20.94.01-.23,0-.46.02-.79.04.17.28.29.47.42.67,2.3,3.34,4.59,6.68,6.89,10.01,17.24,25.04,34.48,50.08,51.72,75.12,7.41,10.76,14.82,21.53,22.23,32.29,7.38,10.72,14.77,21.44,22.14,32.18.33.48.67.69,1.28.69,6.93-.02,13.87-.01,20.8-.01h.86Z"/>
</svg>